HIERARCHY
ROOT Hips
{
	OFFSET 0.000000 0.000000 0.000000
	CHANNELS 6 Xposition Yposition Zposition Xrotation Yrotation Zrotation
	JOINT LeftUpLeg_virtual
	{
		OFFSET 0.000000 0.000000 0.000000
		CHANNELS 3 Xrotation Yrotation Zrotation
		JOINT LeftUpLeg
		{
			OFFSET 15.427100 -6.655098 0.678600
			CHANNELS 3 Xrotation Yrotation Zrotation
			JOINT LeftLeg
			{
				OFFSET 4.081073 -39.591068 13.024000
				CHANNELS 3 Xrotation Yrotation Zrotation
				JOINT LeftFoot
				{
					OFFSET -4.081074 -37.707932 -15.979700
					CHANNELS 3 Xrotation Yrotation Zrotation
					JOINT LeftToeBase
					{
						OFFSET 5.346399 -15.068900 20.645000
						CHANNELS 3 Xrotation Yrotation Zrotation
						JOINT LeftToe_End
						{
							OFFSET 2.754700 0.931300 11.300900
							CHANNELS 3 Xrotation Yrotation Zrotation
							End Site
							{
								OFFSET 0 0 0
							}
						}
					}
				}
			}
		}
	}
	JOINT RightUpLeg_virtual
	{
		OFFSET 0.000000 0.000000 0.000000
		CHANNELS 3 Xrotation Yrotation Zrotation
		JOINT RightUpLeg
		{
			OFFSET -15.569500 -6.655098 0.678600
			CHANNELS 3 Xrotation Yrotation Zrotation
			JOINT RightLeg
			{
				OFFSET -4.081825 -39.591045 13.023800
				CHANNELS 3 Xrotation Yrotation Zrotation
				JOINT RightFoot
				{
					OFFSET 4.081824 -37.707954 -15.979600
					CHANNELS 3 Xrotation Yrotation Zrotation
					JOINT RightToeBase
					{
						OFFSET -5.346400 -15.068900 20.645000
						CHANNELS 3 Xrotation Yrotation Zrotation
						JOINT RightToe_End
						{
							OFFSET -2.754700 0.931300 11.300900
							CHANNELS 3 Xrotation Yrotation Zrotation
							End Site
							{
								OFFSET 0 0 0
							}
						}
					}
				}
			}
		}
	}
	JOINT Spine_virtual
	{
		OFFSET 0.000000 0.000000 0.000000
		CHANNELS 3 Xrotation Yrotation Zrotation
		JOINT Spine
		{
			OFFSET -0.279200 12.230698 -2.892100
			CHANNELS 3 Xrotation Yrotation Zrotation
			JOINT Spine1
			{
				OFFSET -0.232667 10.192268 -1.242267
				CHANNELS 3 Xrotation Yrotation Zrotation
				JOINT Spine1_split
				{
					OFFSET -0.232667 10.192268 -1.242267
					CHANNELS 3 Xrotation Yrotation Zrotation
					JOINT Spine2
					{
						OFFSET -0.232667 10.192268 -1.242267
						CHANNELS 3 Xrotation Yrotation Zrotation
						JOINT Neck_virtual
						{
							OFFSET 0.000000 0.000000 0.000000
							CHANNELS 3 Xrotation Yrotation Zrotation
							JOINT Neck
							{
								OFFSET -0.418800 17.814194 8.416900
								CHANNELS 3 Xrotation Yrotation Zrotation
								JOINT Head
								{
									OFFSET 0.000000 7.031097 3.806800
									CHANNELS 3 Xrotation Yrotation Zrotation
									JOINT HeadTop_End
									{
										OFFSET 0.000000 24.646606 12.978600
										CHANNELS 3 Xrotation Yrotation Zrotation
										End Site
										{
											OFFSET 0 0 0
										}
									}
								}
							}
						}
						JOINT LeftShoulder_virtual
						{
							OFFSET 0.000000 0.000000 0.000000
							CHANNELS 3 Xrotation Yrotation Zrotation
							JOINT LeftShoulder
							{
								OFFSET 8.476499 7.247704 -3.868750
								CHANNELS 3 Xrotation Yrotation Zrotation
								JOINT LeftShoulder_split
								{
									OFFSET 8.476499 7.247704 -3.868750
									CHANNELS 3 Xrotation Yrotation Zrotation
									JOINT LeftArm
									{
										OFFSET 9.308998 -2.777710 0.208600
										CHANNELS 3 Xrotation Yrotation Zrotation
										JOINT LeftForeArm
										{
											OFFSET 29.972298 0.000000 0.000000
											CHANNELS 3 Xrotation Yrotation Zrotation
											JOINT LeftHand
											{
												OFFSET 26.026505 0.000000 0.000000
												CHANNELS 3 Xrotation Yrotation Zrotation
												End Site
												{
													OFFSET 0 0 0
												}
											}
										}
									}
								}
							}
						}
						JOINT RightShoulder_virtual
						{
							OFFSET 0.000000 0.000000 0.000000
							CHANNELS 3 Xrotation Yrotation Zrotation
							JOINT RightShoulder
							{
								OFFSET -7.570500 7.247704 -3.868750
								CHANNELS 3 Xrotation Yrotation Zrotation
								JOINT RightShoulder_split
								{
									OFFSET -7.570500 7.247704 -3.868750
									CHANNELS 3 Xrotation Yrotation Zrotation
									JOINT RightArm
									{
										OFFSET -9.308998 -2.777710 0.208500
										CHANNELS 3 Xrotation Yrotation Zrotation
										JOINT RightForeArm
										{
											OFFSET -29.972300 0.000000 0.000000
											CHANNELS 3 Xrotation Yrotation Zrotation
											JOINT RightHand
											{
												OFFSET -26.026505 0.000000 0.000000
												CHANNELS 3 Xrotation Yrotation Zrotation
												End Site
												{
													OFFSET 0 0 0
												}
											}
										}
									}
								}
							}
						}
					}
				}
			}
		}
	}
}
MOTION
Frames: 4
Frame Time: 0.03333333
2.073859 73.939888 0.508471 0.000000 0.000000 0.000000 -0.672984 -45.669889 3.602859 -38.445741 7.317373 24.434129 55.349083 -9.769221 -1.658570 -16.740037 -9.911725 -10.520143 -3.363401 -0.873446 0.756494 0.000000 0.000000 0.000000 -1.668189 -45.301366 4.227769 -17.252691 -12.097489 -39.218304 57.724859 1.454949 -4.780509 -27.906860 -13.645966 25.655794 -3.104118 0.031070 0.573451 0.000000 0.000000 0.000000 -0.250962 -44.940623 4.612498 9.957898 12.101323 -3.598254 0.880765 3.798150 -1.859547 0.466747 -2.745267 1.403859 0.000000 0.000000 0.000000 2.219758 3.910379 -1.836582 -6.891631 11.250188 2.697399 5.515193 19.511419 1.016139 0.000000 0.000000 0.000000 1.509849 3.882580 -1.466877 1.136143 1.295352 -3.654196 -0.325453 -3.604045 1.389468 5.531485 0.260259 -37.224866 178.873188 -50.359555 178.605567 0.000000 0.000000 0.000000 0.792814 3.618425 -1.520551 2.231316 14.236958 -4.187072 -6.702489 -0.343700 1.725156 -59.373038 19.926846 63.141814 -159.671354 79.814141 158.761805 0.000000 0.000000 0.000000 
2.469577 74.267807 0.571554 0.000000 0.000000 0.000000 -0.418818 -50.377764 3.417669 -33.976940 8.583989 24.876319 54.315549 -9.560366 -3.001420 -20.403156 -6.036403 -9.986594 -3.840213 -0.958659 1.048638 0.000000 0.000000 0.000000 -1.331517 -49.937040 4.291188 -21.077084 -6.547293 -39.595262 59.096907 2.621265 -5.395414 -26.678915 -11.487794 25.343374 -1.980754 0.130639 0.582463 0.000000 0.000000 0.000000 0.370051 -48.937872 4.841950 10.006068 11.800749 -2.714906 1.111215 3.558781 -1.808204 0.633958 -2.656284 1.269242 0.000000 0.000000 0.000000 2.463737 3.710494 -1.737937 -6.705015 12.288642 2.326555 4.180617 22.567158 -0.503612 0.000000 0.000000 0.000000 1.462324 3.683127 -1.381166 1.349065 1.998473 -1.686926 0.570416 -3.908278 0.749565 1.328694 4.912295 -32.249793 179.186352 -54.455893 178.713962 0.000000 0.000000 0.000000 0.786036 3.415624 -1.413163 1.879260 11.618737 -2.128946 -5.860135 -0.664319 2.077081 -60.745626 22.473015 68.026867 -168.306175 75.420069 167.291700 0.000000 0.000000 0.000000 
2.759416 74.443466 0.515768 0.000000 0.000000 0.000000 -0.316591 -54.802842 2.782597 -30.288488 8.608686 25.288384 54.538675 -9.347310 -3.489674 -23.844955 -2.366350 -9.721294 -4.101690 -0.977345 1.076256 0.000000 0.000000 0.000000 -1.104781 -54.066616 3.837176 -24.081886 -2.003602 -39.216088 59.060666 3.666897 -5.790327 -25.135742 -9.351440 25.218302 -1.340181 0.279104 0.557460 0.000000 0.000000 0.000000 1.003243 -52.440061 4.515431 9.941515 10.894060 -2.073835 1.349643 2.969878 -1.749159 0.973028 -2.648312 1.160304 0.000000 0.000000 0.000000 2.703936 3.076743 -1.588111 -6.585101 13.396993 2.087835 3.057196 25.622374 -2.314062 0.000000 0.000000 0.000000 1.532152 3.056513 -1.325479 1.458216 2.594895 0.585183 0.681490 -2.290492 -0.101336 -7.432658 5.512090 -24.790248 178.757662 -66.096485 178.364366 0.000000 0.000000 0.000000 0.878799 2.822907 -1.421616 1.560940 9.831990 -0.546205 -5.189727 -1.457665 2.081898 -61.678808 25.001486 72.251578 -173.425442 71.674769 172.049091 0.000000 0.000000 0.000000 
2.914977 74.519653 0.300777 0.000000 0.000000 0.000000 -0.602759 -57.863874 1.639344 -28.187863 7.330763 25.726713 55.913810 -9.352125 -3.026125 -26.361101 0.495946 -10.094738 -3.779805 -0.900596 0.803191 0.000000 0.000000 0.000000 -1.259638 -56.837761 2.725715 -25.594712 0.599932 -38.242796 57.707722 4.281653 -5.942285 -23.792441 -7.691529 25.126972 -1.343548 0.440947 0.570971 0.000000 0.000000 0.000000 1.276919 -54.806230 3.547476 9.784391 9.300132 -1.650221 1.526088 2.041335 -1.724071 1.336407 -2.448778 0.978429 0.000000 0.000000 0.000000 2.824171 2.027235 -1.517171 -6.497707 14.455177 2.044010 2.698309 28.361812 -4.291486 0.000000 0.000000 0.000000 1.925441 2.000946 -1.382706 1.538921 2.951920 2.685085 -0.282071 0.589054 -0.918415 -18.277870 1.069694 -17.479806 169.688414 -85.309732 169.507318 0.000000 0.000000 0.000000 1.085195 1.830251 -1.559699 1.331388 8.891044 0.521480 -5.178235 -2.183104 1.613170 -60.495990 27.475290 75.464329 -176.795212 68.260152 174.836355 0.000000 0.000000 0.000000 
